# xmcd CD database file
#
# Track frame offsets:
#	150
#	22462
#	38814
#	54115
#	70340
#	85223
#	102023
#	119871
#	129628
#	141832
#	158407
#	172133
#
# Disc length: 2561 seconds
#
# Revision: 0
# Processed by: cddbd v1.5.1PL0 Copyright (c) Steve Scherf et al.
# Submitted via: CDex 1.51
#
DISCID=a909ff0c
DTITLE=S.O.J - CHAOS and ORDER
DYEAR=2004
DGENRE=Game
TTITLE0=OVERWORLD　from 真・女神転生
TTITLE1=DEATH MATCH from 女神転生II
TTITLE2=DAEDALUS from 女神転生
TTITLE3=EXPLORER from 女神転生II
TTITLE4=祈り from 女神転生
TTITLE5=PUB - Wild Ahead - from Dungeon Explorer
TTITLE6=喫茶アフロ from 真・女神転生デビルサマナー
TTITLE7=銀座 from 真・女神転生
TTITLE8=BOSS from 真・女神転生
TTITLE9=BATTLE from 女神転生II
TTITLE10=FLOATING TOWER from Dungeon Explorer
TTITLE11=東邦学園 from キャプテン翼
EXTD=YEAR: 2004
EXTT0=
EXTT1=
EXTT2=
EXTT3=
EXTT4=
EXTT5=
EXTT6=
EXTT7=
EXTT8=
EXTT9=
EXTT10=
EXTT11=
PLAYORDER=
